<svg xmlns="http://www.w3.org/2000/svg" width="19.96" height="17.543" viewBox="0 0 19.96 17.543"><path d="M19.373 5.847h-2.056l-4.5-5.628a.585.585 0 00-.913.731l3.918 4.9H4.14L8.058.95a.585.585 0 00-.913-.731l-4.5 5.628H.585A.585.585 0 000 6.432v1.17a.585.585 0 00.585.585h18.788a.585.585 0 00.585-.585v-1.17a.585.585 0 00-.585-.585zm0 0M3.532 17.119a.584.584 0 00.562.424h11.773a.584.584 0 00.562-.424l2.218-7.763H1.314zm9.127-2.6l.585-3.509a.585.585 0 111.154.192l-.585 3.509a.585.585 0 01-1.154-.192zm-3.263-3.413a.585.585 0 111.17 0v3.509a.585.585 0 01-1.17 0zm-3.312-.577a.585.585 0 01.673.481l.585 3.509a.585.585 0 11-1.154.192l-.585-3.509a.585.585 0 01.481-.673zm0 0" fill="#e00d2e"/></svg>