<svg version="1.1" id="Layer_1" xmlns="http://www.w3.org/2000/svg" x="0" y="0" viewBox="0 0 20 17.5" xml:space="preserve"><style type="text/css">.st0{fill:#fff}</style><path class="st0" d="M19.4 5.8h-2.1L12.8.2c-.2-.2-.6-.3-.8-.1-.2.2-.3.6-.1.8l3.9 4.9H4.1l4-4.8c.2-.3.1-.6-.1-.8-.3-.3-.7-.2-.9 0L2.6 5.8h-2c-.3 0-.6.3-.6.6v1.2c0 .3.3.6.6.6h18.8c.3 0 .6-.3.6-.6V6.4c0-.3-.3-.6-.6-.6zM3.5 17.1c.1.3.3.4.6.4h11.8c.3 0 .5-.2.6-.4l2.2-7.8H1.3l2.2 7.8zm9.2-2.6l.6-3.5c0-.3.3-.5.7-.5.3 0 .5.3.5.7l-.6 3.5c-.1.3-.4.5-.7.5-.4-.1-.6-.4-.5-.7zm-3.3-3.4c0-.3.3-.6.6-.6s.6.3.6.6v3.5c0 .3-.3.6-.6.6s-.6-.3-.6-.6v-3.5zm-3.3-.6c.3-.1.6.2.7.5l.6 3.5c.1.3-.2.6-.5.7-.3.1-.6-.2-.7-.5l-.6-3.5c0-.3.2-.6.5-.7z"/></svg>