<svg xmlns="http://www.w3.org/2000/svg" width="24.784" height="24.784" viewBox="0 0 24.784 24.784"><path d="M12.392 2.2a38 38 0 014.957.138 6.386 6.386 0 012.341.413 4.836 4.836 0 012.34 2.343 6.386 6.386 0 01.413 2.341c0 1.239.138 1.652.138 4.957a38 38 0 01-.138 4.957 6.386 6.386 0 01-.413 2.341 4.836 4.836 0 01-2.341 2.341 6.386 6.386 0 01-2.341.413c-1.239 0-1.652.138-4.957.138a38 38 0 01-4.957-.138 6.386 6.386 0 01-2.341-.413 4.836 4.836 0 01-2.341-2.341 6.386 6.386 0 01-.413-2.341c0-1.239-.138-1.652-.138-4.957a38 38 0 01.138-4.957 6.386 6.386 0 01.413-2.341 4.945 4.945 0 01.964-1.377 2.328 2.328 0 011.377-.964 6.386 6.386 0 012.341-.413 38 38 0 014.958-.14m0-2.2A40.683 40.683 0 007.3.138a8.5 8.5 0 00-3.032.55 5.39 5.39 0 00-2.2 1.377 5.39 5.39 0 00-1.377 2.2A6.274 6.274 0 00.138 7.3 40.683 40.683 0 000 12.392a40.683 40.683 0 00.138 5.094 8.5 8.5 0 00.551 3.029 5.39 5.39 0 001.377 2.2 5.39 5.39 0 002.2 1.377 8.5 8.5 0 003.029.551 40.683 40.683 0 005.094.138 40.683 40.683 0 005.094-.138 8.5 8.5 0 003.029-.551 5.777 5.777 0 003.58-3.58 8.5 8.5 0 00.551-3.029c0-1.377.138-1.79.138-5.094a40.683 40.683 0 00-.135-5.089 8.5 8.5 0 00-.546-3.032 5.39 5.39 0 00-1.377-2.2 5.39 5.39 0 00-2.2-1.377 8.5 8.5 0 00-3.037-.553A40.683 40.683 0 0012.392 0m0 6.058a6.232 6.232 0 00-6.334 6.334 6.334 6.334 0 106.334-6.334m0 10.464a4.057 4.057 0 01-4.131-4.131 4.057 4.057 0 014.131-4.131 4.057 4.057 0 014.131 4.131 4.057 4.057 0 01-4.131 4.131M19 4.268a1.515 1.515 0 101.515 1.515A1.528 1.528 0 0019 4.268" fill="#fff" fill-rule="evenodd"/></svg>