<svg xmlns="http://www.w3.org/2000/svg" width="23.75" height="23.2" viewBox="0 0 23.75 23.2"><defs><clipPath id="a"><path d="M0 15.312h23.75v-23.2H0z" transform="translate(0 7.888)" fill="none"/></clipPath></defs><g clip-path="url(#a)"><path d="M5.391 23.2H.3V7.547h5.091zM2.847 5.409h-.035A2.662 2.662 0 010 2.706 2.683 2.683 0 012.879 0a2.671 2.671 0 012.847 2.706 2.682 2.682 0 01-2.879 2.7m20.9 17.791h-5.088v-8.374c0-2.1-.735-3.538-2.579-3.538a2.793 2.793 0 00-2.612 1.9 3.624 3.624 0 00-.168 1.271V23.2H8.212s.065-14.185 0-15.653H13.3v2.215a5.033 5.033 0 014.591-2.586c3.347 0 5.859 2.238 5.859 7.047z" fill="#fff"/></g></svg>