<svg xmlns="http://www.w3.org/2000/svg" width="125" height="125" viewBox="0 0 125 125"><path d="M62.5 125a62.96 62.96 0 01-12.6-1.27 62.186 62.186 0 01-11.732-3.642 62.5 62.5 0 01-10.616-5.762 62.961 62.961 0 01-9.25-7.632 62.955 62.955 0 01-7.632-9.25 62.5 62.5 0 01-5.762-10.617A62.191 62.191 0 011.27 75.1 62.949 62.949 0 010 62.5a62.949 62.949 0 011.27-12.6 62.191 62.191 0 013.642-11.732 62.505 62.505 0 015.762-10.617 62.954 62.954 0 017.632-9.25 62.961 62.961 0 019.25-7.632 62.5 62.5 0 0110.616-5.762A62.186 62.186 0 0149.9 1.27 62.96 62.96 0 0162.5 0a62.962 62.962 0 0112.6 1.27 62.19 62.19 0 0111.732 3.642 62.5 62.5 0 0110.616 5.762 62.961 62.961 0 019.25 7.632 62.962 62.962 0 017.632 9.25 62.489 62.489 0 015.763 10.617A62.191 62.191 0 01123.73 49.9 62.966 62.966 0 01125 62.5a62.966 62.966 0 01-1.27 12.6 62.191 62.191 0 01-3.642 11.732 62.489 62.489 0 01-5.763 10.617 62.962 62.962 0 01-7.632 9.25 62.961 62.961 0 01-9.25 7.632 62.5 62.5 0 01-10.616 5.762 62.191 62.191 0 01-11.732 3.642A62.961 62.961 0 0162.5 125zM47.675 37.21v50.581L91.861 62.5 47.675 37.21z" fill="#fff"/></svg>