<svg xmlns="http://www.w3.org/2000/svg" width="83.4" height="67.8" viewBox="0 0 83.4 67.8"><path data-name="Path 771" d="M35.4 9a50.286 50.286 0 00-12.9 12.75q-5.7 7.95-6.3 15.15l3.9-.3a13.516 13.516 0 0110.35 4.35 16.357 16.357 0 01-.6 22.2A15.325 15.325 0 0118.6 67.8a16.915 16.915 0 01-13.2-6.15Q0 55.5 0 45a50.668 50.668 0 016.75-25.2A60.9 60.9 0 0124.3 0zm48 0a48.279 48.279 0 00-12.75 12.75Q65.1 29.7 64.2 36.9l3.9-.3a13.994 13.994 0 0110.5 4.35 15.959 15.959 0 01-.6 22.2 15.826 15.826 0 01-11.4 4.65 16.915 16.915 0 01-13.2-6.15Q48 55.5 48 45a50.668 50.668 0 016.75-25.2A60.9 60.9 0 0172.3 0z" fill="#fff"/></svg>