<svg xmlns="http://www.w3.org/2000/svg" width="24.784" height="20.102" viewBox="0 0 24.784 20.102"><path d="M7.848 20.1A14.329 14.329 0 0022.305 5.645v-.688a11.192 11.192 0 002.478-2.616 11.43 11.43 0 01-2.891.826 5.357 5.357 0 002.2-2.754 12.629 12.629 0 01-3.167 1.239A4.917 4.917 0 0017.211 0a5.173 5.173 0 00-5.094 5.094 2.684 2.684 0 00.138 1.1A14.235 14.235 0 011.79.826a5.273 5.273 0 00-.69 2.616A5.471 5.471 0 003.3 7.71a4.642 4.642 0 01-2.341-.688 5.032 5.032 0 004.131 4.957 4.245 4.245 0 01-1.377.138 2.343 2.343 0 01-.964-.138 5.216 5.216 0 004.819 3.58 10.4 10.4 0 01-6.334 2.2A3.812 3.812 0 010 17.624 13 13 0 007.848 20.1" fill="#fff" fill-rule="evenodd"/></svg>