<svg width="83" height="75" viewBox="0 0 83 75" version="1.1" xmlns="http://www.w3.org/2000/svg"><g stroke="none" stroke-width="1" fill="none" fill-rule="evenodd"><path d="M31.105 50.442c.637-4.258-2.605-6.547-7.038-8.074l1.439-5.768-3.512-.875-1.4 5.616c-.922-.23-1.87-.447-2.813-.662l1.41-5.653-3.508-.875-1.44 5.766c-.764-.174-1.514-.346-2.242-.527l.005-.018-4.843-1.21-.933 3.75s2.604.598 2.55.635c1.422.355 1.679 1.296 1.636 2.042l-1.639 6.57c.099.026.226.062.366.118-.117-.03-.242-.061-.372-.092L6.476 60.39c-.173.432-.614 1.08-1.608.834.035.05-2.552-.637-2.552-.637L.572 64.606l4.569 1.139c.85.213 1.683.436 2.503.646L6.19 72.225l3.507.875 1.44-5.772c.957.26 1.887.5 2.797.726l-1.433 5.745 3.51.875 1.454-5.823c5.986 1.133 10.489.676 12.384-4.74 1.526-4.36-.076-6.874-3.227-8.514 2.294-.53 4.023-2.038 4.483-5.155zM23.084 61.69c-1.085 4.36-8.426 2.003-10.806 1.412l1.928-7.73c2.38.595 10.012 1.77 8.878 6.318zm1.085-11.312c-.99 3.966-7.1 1.95-9.082 1.457l1.748-7.01c1.982.494 8.366 1.416 7.334 5.553z" fill="#FFF" fill-rule="nonzero"/><path d="M53.627 39.086c-1.035-2.403-2.66-5.21-4.876-8.421l4.876-3.804-5.77-6.587-5.093 3.695c-2.517-1.908-4.78-3.432-6.785-4.572M64.071 17.91l11.404 3.123-7.563-6.373 4.734-7.723-9.085 3.676-5.442-7.063.902 8.275" stroke="#FFF" stroke-width="2"/><path d="M53.257 21.436c.226-1.058 1.188-2.153 2.888-3.288 1.7-1.135 3.403-1.705 5.112-1.712" stroke="#FFF"/></g></svg>