<svg width="32" height="99" viewBox="0 0 32 99" version="1.1" xmlns="http://www.w3.org/2000/svg"><g fill="#FFF" fill-rule="nonzero" stroke="none" stroke-width="1"><path d="M30.973 74.04c.635-4.234-2.593-6.51-7.007-8.029l1.432-5.735-3.496-.87-1.394 5.584a146.4 146.4 0 00-2.8-.658l1.403-5.621-3.494-.87-1.433 5.733c-.76-.173-1.507-.344-2.232-.524l.004-.018-4.821-1.202-.93 3.729s2.594.594 2.539.63c1.416.353 1.672 1.289 1.629 2.03l-1.631 6.535c.098.025.224.06.363.116l-.369-.091-2.286 9.153c-.173.43-.612 1.074-1.602.83.035.05-2.541-.634-2.541-.634L.572 88.124l4.549 1.133c.846.211 1.675.433 2.492.642L6.166 95.7l3.492.87 1.433-5.74c.954.26 1.88.498 2.786.723l-1.428 5.712 3.496.87 1.446-5.79c5.962 1.127 10.444.672 12.33-4.712 1.521-4.336-.075-6.836-3.211-8.467 2.284-.526 4.004-2.027 4.463-5.126zm-7.987 11.185c-1.08 4.336-8.39 1.992-10.76 1.405l1.92-7.686c2.37.59 9.97 1.76 8.84 6.281zm1.081-11.248c-.985 3.944-7.069 1.94-9.042 1.449l1.74-6.97c1.974.49 8.329 1.408 7.302 5.521zM3.358 39.043l-.695-1.875 1.192-.436a259.07 259.07 0 014.773-1.666l1.653-.557.001-5.872L22 28.414l-.001 6.01.526.117c2.238.512 4.686 1.158 7.345 1.94l.803.238-.573 1.916c-3.195-.956-6.085-1.72-8.668-2.29l-1.432-.306v-5.586l-7.718.147.001 5.35-1.912.638c-2.8.942-5.138 1.76-7.012 2.455zM11.427 20.547l-9.032-6.035 8.99-1.371L16 3.928l4.23 8.937 8.835.438-8.563 7.22-1.289-1.53 4.678-3.944-4.956-.246-2.987-6.306-3.237 6.465-4.92.75 4.748 3.172z"/><path d="M17 19v10h-2V19z"/></g></svg>