<svg width="32" height="41" viewBox="0 0 32 41" version="1.1" xmlns="http://www.w3.org/2000/svg"><path d="M31.105 16.442c.637-4.258-2.605-6.547-7.038-8.074L25.506 2.6l-3.512-.875-1.4 5.616c-.922-.23-1.87-.447-2.813-.662l1.41-5.653L15.684.15l-1.44 5.766c-.764-.174-1.514-.346-2.242-.527l.005-.018-4.843-1.21-.934 3.75s2.606.598 2.55.635c1.422.355 1.68 1.296 1.636 2.042l-1.637 6.57c.098.026.224.062.364.118l-.37-.092-2.296 9.205c-.175.432-.615 1.08-1.61.834.036.05-2.551-.637-2.551-.637L.57 30.606l4.57 1.139c.85.213 1.683.436 2.503.646L6.19 38.225l3.507.875 1.44-5.772c.957.26 1.887.5 2.797.726l-1.433 5.745 3.51.875 1.454-5.823c5.986 1.133 10.488.676 12.384-4.74 1.526-4.36-.076-6.874-3.227-8.514 2.294-.53 4.023-2.038 4.483-5.155zM23.084 27.69c-1.085 4.36-8.426 2.003-10.806 1.412l1.928-7.73c2.38.595 10.012 1.77 8.878 6.318zm1.085-11.312c-.99 3.966-7.1 1.95-9.082 1.457l1.748-7.01c1.982.494 8.366 1.416 7.334 5.553z" fill="#FFF" fill-rule="nonzero" stroke="none" stroke-width="1"/></svg>