<?xml version="1.0" encoding="UTF-8"?>
<svg width="30px" height="29px" viewBox="0 0 30 29" version="1.1" xmlns="http://www.w3.org/2000/svg" xmlns:xlink="http://www.w3.org/1999/xlink">
    <title>Shape</title>
    <g id="Page-1" stroke="none" stroke-width="1" fill="none" fill-rule="evenodd">
        <g id="Artboard" transform="translate(-114.000000, -102.000000)" fill="#FF6978" fill-rule="nonzero">
            <g id="“" transform="translate(114.227500, 102.437500)">
                <path d="M7.03,28.1675 C4.87666667,28.1675 3.16666667,27.4233333 1.9,25.935 C0.633333333,24.4466667 -1.42108547e-14,22.1191667 -1.42108547e-14,18.9525 C-1.42108547e-14,15.4058333 0.855,12.1125 2.565,9.0725 C4.275,6.0325 6.58666667,3.05583333 9.5,0.1425 C9.75333333,-0.0475 9.975,-0.0475 10.165,0.1425 C10.355,0.3325 10.3866667,0.554166667 10.26,0.8075 C8.48666667,2.96083333 7.28333333,5.09833333 6.65,7.22 C6.01666667,9.34166667 5.7,11.5741667 5.7,13.9175 C5.7,15.8175 5.87416667,17.1791667 6.2225,18.0025 C6.57083333,18.8258333 7.06166667,19.4908333 7.695,19.9975 L4.18,20.6625 C4.11666667,19.5858333 4.43333333,18.7625 5.13,18.1925 C5.82666667,17.6225 6.77666667,17.3375 7.98,17.3375 C9.62666667,17.3375 10.9091667,17.8125 11.8275,18.7625 C12.7458333,19.7125 13.205,21.0108333 13.205,22.6575 C13.205,24.4308333 12.635,25.7925 11.495,26.7425 C10.355,27.6925 8.86666667,28.1675 7.03,28.1675 Z M23.465,28.1675 C21.3116667,28.1675 19.6016667,27.4233333 18.335,25.935 C17.0683333,24.4466667 16.435,22.1191667 16.435,18.9525 C16.435,15.4058333 17.29,12.1125 19,9.0725 C20.71,6.0325 23.0216667,3.05583333 25.935,0.1425 C26.1883333,-0.0475 26.41,-0.0475 26.6,0.1425 C26.79,0.3325 26.8216667,0.554166667 26.695,0.8075 C24.9216667,2.96083333 23.7183333,5.09833333 23.085,7.22 C22.4516667,9.34166667 22.135,11.5741667 22.135,13.9175 C22.135,15.8175 22.3091667,17.1791667 22.6575,18.0025 C23.0058333,18.8258333 23.4966667,19.4908333 24.13,19.9975 L20.615,20.6625 C20.5516667,19.5858333 20.8683333,18.7625 21.565,18.1925 C22.2616667,17.6225 23.2116667,17.3375 24.415,17.3375 C26.0616667,17.3375 27.3441667,17.8125 28.2625,18.7625 C29.1808333,19.7125 29.64,21.0108333 29.64,22.6575 C29.64,24.4308333 29.07,25.7925 27.93,26.7425 C26.79,27.6925 25.3016667,28.1675 23.465,28.1675 Z" id="Shape"></path>
            </g>
        </g>
    </g>
</svg>