<svg width="30" height="29" viewBox="0 0 30 29" version="1.1" xmlns="http://www.w3.org/2000/svg"><path d="M7.258 28.605c-2.154 0-3.864-.744-5.13-2.233-1.267-1.488-1.9-3.815-1.9-6.982 0-3.547.855-6.84 2.565-9.88C4.503 6.47 6.814 3.493 9.728.58c.253-.19.475-.19.665 0 .19.19.221.412.095.665-1.774 2.153-2.977 4.29-3.61 6.412-.634 2.122-.95 4.355-.95 6.698 0 1.9.174 3.262.522 4.085.348.823.84 1.488 1.473 1.995l-3.515.665c-.064-1.077.253-1.9.95-2.47.696-.57 1.646-.855 2.85-.855 1.646 0 2.929.475 3.847 1.425.918.95 1.378 2.248 1.378 3.895 0 1.773-.57 3.135-1.71 4.085-1.14.95-2.629 1.425-4.465 1.425zm16.435 0c-2.154 0-3.864-.744-5.13-2.233-1.267-1.488-1.9-3.815-1.9-6.982 0-3.547.855-6.84 2.565-9.88 1.71-3.04 4.021-6.017 6.935-8.93.253-.19.475-.19.665 0 .19.19.221.412.095.665-1.774 2.153-2.977 4.29-3.61 6.412-.634 2.122-.95 4.355-.95 6.698 0 1.9.174 3.262.522 4.085.348.823.84 1.488 1.473 1.995l-3.515.665c-.064-1.077.253-1.9.95-2.47.696-.57 1.646-.855 2.85-.855 1.646 0 2.929.475 3.847 1.425.918.95 1.378 2.248 1.378 3.895 0 1.773-.57 3.135-1.71 4.085-1.14.95-2.629 1.425-4.465 1.425z" fill="#F7931A" fill-rule="nonzero" stroke="none" stroke-width="1"/></svg>